<svg xmlns="http://www.w3.org/2000/svg" fill="none" stroke="currentColor" stroke-width="1.5" class="w-6 h-6" viewBox="0 0 24 24">
  <path stroke-linecap="round" stroke-linejoin="round" d="M10.34 3.94c.1-.54.56-.94 1.11-.94h1.1c.55 0 1.02.4 1.1.94l.15.9c.07.42.39.76.78.92.4.17.86.15 1.21-.1l.74-.53a1.13 1.13 0 0 1 1.45.12l.77.77c.39.4.44 1 .12 1.45l-.53.74c-.25.35-.27.8-.1 1.2.16.4.5.71.93.78l.89.15c.54.1.94.56.94 1.11v1.1c0 .55-.4 1.02-.94 1.1l-.9.16c-.42.07-.76.38-.92.78-.17.4-.15.85.1 1.2l.53.74c.32.44.27 1.06-.12 1.45l-.77.77a1.13 1.13 0 0 1-1.45.12l-.74-.53c-.35-.25-.8-.27-1.2-.1-.4.16-.71.5-.79.93l-.14.89c-.1.54-.56.94-1.11.94h-1.1c-.55 0-1.02-.4-1.1-.94l-.16-.9a1.26 1.26 0 0 0-.78-.92c-.4-.17-.85-.15-1.2.1l-.74.53c-.45.32-1.06.27-1.45-.12l-.77-.77a1.13 1.13 0 0 1-.12-1.45l.52-.74c.25-.35.28-.8.11-1.2-.16-.4-.5-.71-.93-.78l-.9-.15A1.13 1.13 0 0 1 3 12.55v-1.1c0-.55.4-1.02.94-1.1l.9-.16c.42-.07.76-.38.92-.78.17-.4.15-.85-.1-1.2l-.53-.74a1.13 1.13 0 0 1 .12-1.45l.77-.77a1.13 1.13 0 0 1 1.45-.12l.74.53c.35.25.8.27 1.2.1.4-.16.71-.5.78-.93l.15-.89z"/>
  <path stroke-linecap="round" stroke-linejoin="round" d="M15 12a3 3 0 1 1-6 0 3 3 0 0 1 6 0z"/>
</svg>
