<svg xmlns="http://www.w3.org/2000/svg" fill="none" stroke="currentColor" stroke-width="1.5" class="w-6 h-6" viewBox="0 0 24 24">
  <path stroke-linecap="round" stroke-linejoin="round" d="M11.48 3.5a.56.56 0 0 1 1.04 0l2.13 5.11a.56.56 0 0 0 .47.34l5.52.45c.5.04.7.66.32.98l-4.2 3.6a.56.56 0 0 0-.19.56l1.29 5.39a.56.56 0 0 1-.84.6l-4.73-2.88a.56.56 0 0 0-.58 0l-4.73 2.89a.56.56 0 0 1-.84-.61l1.29-5.39a.56.56 0 0 0-.18-.55l-4.2-3.6a.56.56 0 0 1 .31-1l5.52-.44a.56.56 0 0 0 .47-.34l2.13-5.11z"/>
</svg>
